<?xml version="1.0" encoding="utf-8"?>
<!-- Generator: Adobe Illustrator 24.0.1, SVG Export Plug-In . SVG Version: 6.00 Build 0)  -->
<svg version="1.1" id="Layer_1" xmlns="http://www.w3.org/2000/svg" xmlns:xlink="http://www.w3.org/1999/xlink" x="0px" y="0px"
	 viewBox="0 0 75 75" style="enable-background:new 0 0 75 75;" xml:space="preserve">
<g>
	<g>
		<path d="M33.4,27.7v-6.8h8.4v6.8H33.4z M33.4,58.4v-27h8.4v27C41.8,58.4,33.4,58.4,33.4,58.4z"/>
	</g>
	<g>
		<path d="M37.5,75C16.8,75,0,58.2,0,37.5C0,16.8,16.8,0,37.5,0C58.2,0,75,16.8,75,37.5C75,58.2,58.2,75,37.5,75z M37.5,5.4
			C19.8,5.4,5.4,19.8,5.4,37.5c0,17.7,14.4,32.1,32.1,32.1c17.7,0,32.1-14.4,32.1-32.1C69.6,19.8,55.2,5.4,37.5,5.4z"/>
	</g>
</g>
</svg>
