<?xml version="1.0" encoding="utf-8"?>
<!-- Generator: Adobe Illustrator 24.0.1, SVG Export Plug-In . SVG Version: 6.00 Build 0)  -->
<svg version="1.2" baseProfile="tiny" id="Layer_1" xmlns="http://www.w3.org/2000/svg" xmlns:xlink="http://www.w3.org/1999/xlink"
	 x="0px" y="0px" viewBox="0 0 75 75" xml:space="preserve">
<circle fill="#FFFFFF" cx="37.5" cy="37.5" r="35.8"/>
<g>
	<g>
		<path fill="#CC6060" d="M41.6,49.3v6.8h-8.4v-6.8H41.6z M41.6,18.6v27h-8.4v-27C33.2,18.6,41.6,18.6,41.6,18.6z"/>
	</g>
	<g>
		<path fill="#CC6060" d="M37.5,0C58.2,0,75,16.8,75,37.5S58.2,75,37.5,75S0,58.2,0,37.5S16.8,0,37.5,0z M37.5,73.3
			c19.7,0,35.8-16.1,35.8-35.8S57.2,1.7,37.5,1.7S1.7,17.8,1.7,37.5S17.8,73.3,37.5,73.3z"/>
	</g>
</g>
</svg>
