<?xml version="1.0" encoding="utf-8"?>
<svg version="1.2" baseProfile="tiny" id="Layer_1" xmlns="http://www.w3.org/2000/svg" xmlns:xlink="http://www.w3.org/1999/xlink"
	 x="0px" y="0px" viewBox="0 0 74.9 45.8" xml:space="preserve">
<g>
	<path fill="#FFFFFF" d="M29.2,22c0.9,0.7,2.6,1.5,4.4,1.5c1.5,0,2.9-0.5,4.3-1.4c0.5-0.3,0.6-1,0.2-1.5c-0.3-0.5-1-0.6-1.5-0.2
		c-1.3,0.9-3.4,1.7-6.1,0.2l0-0.2c-0.2-0.1-0.4-0.2-0.6-0.2c-0.3,0-0.6,0.1-0.9,0.4c-0.1,0.2-0.2,0.5-0.1,0.7S29,21.8,29.2,22
		L29.2,22z"/>
	<circle fill="#FFFFFF" cx="29.5" cy="14.9" r="1.3"/>
	<circle fill="#FFFFFF" cx="37.6" cy="14.9" r="1.3"/>
	<path fill="#FFFFFF" d="M56.6,21c1.5,0,2.9-0.5,4.3-1.4c0.5-0.3,0.6-1,0.2-1.5c-0.3-0.5-1-0.6-1.5-0.2c-1.3,0.9-3.4,1.7-6.1,0.2
		L53.3,18c-0.5-0.3-1.1-0.3-1.5,0.2c-0.3,0.4-0.2,1.1,0.2,1.4C53,20.2,54.8,21,56.6,21z"/>
	<circle fill="#FFFFFF" cx="52.6" cy="12.4" r="1.3"/>
	<circle fill="#FFFFFF" cx="60.6" cy="12.4" r="1.3"/>
	<path fill="#FFFFFF" d="M14.4,37.5c0.3,0.1,0.5,0.1,0.9,0.1H17l-0.6,1.1c-0.2,0.3-0.3,0.6-0.5,0.9c-0.2,0.5-0.5,1-0.8,1.4
		c-0.2,0.3-0.2,0.6-0.1,0.9c0.1,0.3,0.3,0.5,0.5,0.6s0.3,0.1,0.5,0.1c0.4,0,0.7-0.2,0.9-0.6l0.1-0.2c1.4-2.8,2.9-5.8,5.3-7.4
		l0.4-0.2l0.4,0.2c1.3,0.7,2.4,1.1,3.4,1.4h0.2c0.4,0,0.8-0.2,1-0.8c0.1-0.5-0.2-1.1-0.7-1.2c-6-1.5-10.1-6.9-10.1-13.1
		c0-7.4,6.1-13.5,13.5-13.5s13.5,6.1,13.5,13.5c0,4.6-2.4,8.9-6.3,11.4c-0.5,0.3-1.1,0.7-1.8,0.9c-0.5,0.2-0.7,0.8-0.5,1.4
		c0.2,0.5,0.8,0.7,1.4,0.5c0.3-0.1,0.6-0.3,0.9-0.5l0.4-0.2l0.5,0.2c2.5,1.6,4.9,4.5,6.5,8.1c0.2,0.4,0.6,0.6,1,0.6
		c0.1,0,0.3,0,0.5-0.1c0.4-0.2,0.7-0.7,0.4-1.3c-1.5-3.4-3.7-6.3-6.2-8.2L40,33l0.7-0.6c0.8-0.7,1.4-1.3,1.9-1.9l0.5-0.6l0.6,0.5
		c1.8,1.4,3.8,2.4,5.9,2.9h0.2c0.4,0,0.8-0.2,1-0.8c0.1-0.3,0-0.6-0.1-0.8c-0.1-0.1-0.3-0.3-0.6-0.4c-2.1-0.6-3.9-1.6-5.4-2.9
		L44.3,28l0.2-0.5c1-2.2,1.6-4.5,1.6-6.8c0-3.5-1.2-6.9-3.4-9.7l-0.4-0.5l0.4-0.5c2.9-3.4,6.8-5.3,11-5.3C61,4.7,67,10.8,67,18.2
		c0,4.6-2.4,8.9-6.3,11.4c-0.5,0.4-1.1,0.7-1.8,0.9c-0.5,0.2-0.7,0.8-0.5,1.4c0.2,0.3,0.5,0.6,0.9,0.6c0.1,0,0.3,0,0.5-0.1
		c0.1,0,0.3-0.1,0.4-0.2c0.2-0.1,0.4-0.2,0.6-0.3l0.4-0.2l0.3,0.2c2.4,1.8,4,5.5,5.2,8.1l0.4,0.8c0.2,0.4,0.5,0.6,1,0.6
		c0.1,0,0.3,0,0.5-0.1c0.4-0.2,0.7-0.8,0.4-1.3l-0.4-0.8c-1.3-2.9-2.8-6.1-5.1-8.2L63,30.6l0.6-0.6C67,27,69,22.7,69,18.2
		c0-4.2-1.6-8.1-4.5-11c-2.9-3-6.9-4.6-11-4.6c-4.8,0-9.2,2.1-12.2,5.8L40.8,9l-0.6-0.5C37.5,6.3,34,5,30.4,5
		c-8.6,0-15.6,7-15.6,15.6c0,2.3,0.6,4.7,1.6,6.9l0.2,0.4l-0.1,0.5c-1.5,1.7-3.6,5.5-3.4,7.4C13.2,36.6,13.7,37.2,14.4,37.5z
		 M15.3,34.6c0.4-1.2,1.2-2.8,2-3.9l0.5-0.8l0.6,0.7c0.6,0.6,1.1,1.2,1.7,1.8l0.6,0.6l-0.6,0.6c-0.7,0.6-2.6,1.6-4,2l-1.3,0.3
		L15.3,34.6z"/>
	<path fill="#FFFFFF" d="M12.8,25.5c0.2-0.2,0.3-0.5,0.3-0.8S13,24.2,12.8,24l-2.4-2.2c-0.2-0.2-0.5-0.3-0.8-0.3S9.1,21.6,9,21.8
		c-0.4,0.4-0.4,1.1,0,1.5l2.4,2.2C11.9,26,12.4,25.9,12.8,25.5z"/>
	<path fill="#FFFFFF" d="M10.5,29.8c0.4,0,0.9-0.3,1-0.8c0.1-0.2,0-0.5-0.1-0.8c-0.1-0.2-0.4-0.4-0.6-0.5c-1.2-0.3-3.6-0.5-3.8-0.6
		c-0.1,0-0.1,0-0.2,0c-0.2,0-0.4,0.1-0.6,0.2C6,27.5,5.9,27.7,5.8,28c0,0.3,0.1,0.6,0.3,0.8c0.1,0.1,0.3,0.3,0.6,0.3L10.5,29.8z"/>
	<path fill="#FFFFFF" d="M10.4,32.3c-0.1,0-0.3,0-0.5,0.1c-0.4,0.2-0.8,0.4-1.1,0.6l-0.3,0.2c-0.5,0.3-1,0.6-1.3,0.7
		c-0.2,0-0.4,0.2-0.5,0.5c-0.1,0.2-0.1,0.5,0,0.7c0.2,0.4,0.6,0.7,1,0.7c0.1,0,0.2,0,0.4-0.1h0.2c0.4-0.1,0.8-0.3,1.4-0.6l0,0
		c0.4-0.2,0.7-0.4,1.1-0.6c0.6-0.3,0.9-0.9,0.6-1.5C11.2,32.5,10.8,32.3,10.4,32.3z"/>
</g>
</svg>
